<svg width="208" height="182" viewBox="0 0 208 182" fill="none" xmlns="http://www.w3.org/2000/svg">
<path opacity="0.1" d="M161.946 152.823C161.946 152.823 161.938 152.831 161.93 152.839C149.921 167.079 133.051 177.323 113.307 180.768C72.3316 187.916 33.1733 163.286 20.9227 124.586C20.9227 90.7001 38.6728 59.667 66.6222 42.2418C59.6611 56.7007 56.9881 73.4045 59.9356 90.4326C67.4378 133.744 108.502 162.751 151.657 155.23C154.549 154.727 157.367 154.071 160.121 153.277C160.734 153.139 161.348 152.985 161.954 152.823H161.946ZM156.818 153.941C122.319 159.955 89.4921 136.767 83.4919 102.144C77.6049 68.1527 99.7641 35.7823 133.221 28.9176C122.844 27.2156 112.015 27.1913 101.072 29.104C91.3575 30.7979 82.2322 33.8939 73.8659 38.1489C64.0461 53.7424 59.7418 72.902 63.1335 92.5074C70.3934 134.458 110.165 162.549 151.972 155.262C155.388 154.671 158.707 153.852 161.93 152.839C161.93 152.839 161.938 152.831 161.946 152.823C160.266 153.261 158.554 153.633 156.818 153.941ZM151.084 15.4476C149.945 14.7992 148.831 14.1103 147.733 13.3971C147.733 13.3971 147.733 13.3971 147.725 13.3971C137.445 7.38335 126.042 3.21751 114.05 1.27237C103.576 -0.429623 92.6496 -0.437728 81.6103 1.4912C28.2553 10.7711 -7.47081 61.7175 1.79989 115.257C4.82014 132.683 12.2335 148.236 22.6994 160.968C19.6791 154.006 17.4341 146.582 16.0774 138.769C6.93593 85.9588 42.1775 35.7175 94.7896 26.5348C113.274 23.3092 131.436 25.5866 147.628 32.1838C179.138 43.652 206.934 24.2979 207.33 24.0224C206.095 24.2979 204.851 24.5492 203.591 24.768C184.799 28.0423 166.403 24.306 151.076 15.4395L151.084 15.4476Z" fill="#FBF9F5"/>
</svg>
