<svg width="151" height="182" viewBox="0 0 151 182" fill="none" xmlns="http://www.w3.org/2000/svg">
<path opacity="0.1" d="M147.79 130.348L146.519 135.27C137.299 170.697 97.2326 190.155 57.0329 178.728C27.7967 170.417 6.54192 148.059 0.664062 122.852C8.09958 139.265 22.4248 151.311 39.2396 157.947C44.0989 160.287 49.2446 162.249 54.6365 163.781C93.1853 174.739 131.628 160.013 147.79 130.348ZM132.506 91.8833C132.46 91.4791 132.413 91.075 132.367 90.6839C132.3 90.1624 132.233 89.7061 132.167 89.2889V89.2759C132.027 88.3633 131.861 87.4638 131.681 86.5903C131.681 86.5773 131.681 86.5642 131.674 86.5512C131.435 85.4105 131.135 84.2241 130.789 83.0182C130.789 82.9987 130.776 82.9791 130.776 82.9596C130.43 81.7797 130.05 80.613 129.631 79.5048C129.624 79.4788 129.611 79.4592 129.604 79.4331C127.68 74.2445 124.891 69.4013 121.31 65.0275C121.297 65.0144 121.29 65.0014 121.277 64.9884C121.257 64.9623 121.237 64.9362 121.21 64.9101C121.177 64.871 121.143 64.8319 121.11 64.7863C121.084 64.7537 121.057 64.7276 121.03 64.695L120.984 64.6364C120.984 64.6364 120.97 64.6168 120.957 64.6103C120.857 64.493 120.757 64.3756 120.657 64.2583C120.657 64.2583 120.657 64.2518 120.644 64.2453C120.511 64.0823 120.385 63.9454 120.265 63.8085C120.265 63.802 120.251 63.789 120.245 63.7825C119.925 63.4109 119.579 63.0263 119.213 62.6352C119.193 62.6157 119.18 62.5961 119.16 62.5766C118.028 61.3511 116.743 60.243 115.439 59.1218C115.439 59.1218 115.425 59.1218 115.419 59.1218C133.139 117.729 57.379 161.734 3.97244 125.238L6.03601 128.536C10.8155 135.602 17.1726 141.795 24.7945 146.749C35.0392 153.41 47.1078 157.595 59.6889 158.86C59.6956 158.86 59.7089 158.86 59.7155 158.86H59.7488C59.7821 158.866 59.8154 158.873 59.8553 158.873C59.8953 158.873 59.9352 158.873 59.9751 158.886C59.9884 158.886 60.0084 158.886 60.0217 158.886H60.0417C60.0417 158.886 60.075 158.886 60.0883 158.886C61.8124 159.055 63.5964 159.166 65.387 159.212C65.6267 159.212 65.8663 159.225 66.1059 159.225H66.1392C66.3988 159.225 66.6518 159.225 66.9047 159.225C70.2198 159.225 73.5814 158.99 77.1827 158.514C77.196 158.514 77.2026 158.514 77.216 158.514C77.2492 158.514 77.2892 158.508 77.3225 158.501C77.3491 158.501 77.3691 158.501 77.389 158.495C77.9615 158.423 78.5406 158.338 79.1131 158.254C79.1863 158.234 79.2662 158.214 79.3394 158.201C82.3349 157.712 85.3105 157.028 88.1862 156.168L88.2661 156.142L88.3126 156.129C88.3126 156.129 88.3193 156.129 88.326 156.129C100.661 152.609 110.599 146.247 117.848 137.219C117.862 137.199 117.875 137.186 117.882 137.173C117.888 137.167 117.902 137.153 117.908 137.14C118.328 136.639 118.754 136.098 119.186 135.537C119.213 135.504 119.24 135.465 119.266 135.433C123.413 130.224 126.695 124.449 129.018 118.283C129.344 117.429 129.651 116.536 129.944 115.63C129.944 115.63 129.944 115.623 129.944 115.617C130.01 115.415 130.077 115.2 130.143 114.984L130.183 114.861C130.296 114.496 130.41 114.117 130.523 113.713C130.643 113.309 130.749 112.918 130.842 112.56C130.842 112.56 130.842 112.553 130.842 112.547C130.909 112.312 130.969 112.058 131.049 111.751C131.135 111.399 131.222 111.041 131.308 110.682C131.401 110.285 131.475 109.939 131.541 109.626C132.799 103.701 133.119 97.7302 132.5 91.8637L132.506 91.8833ZM103.883 51.8799C104.002 53.9462 104.229 55.8757 104.355 57.7855C104.442 58.7307 104.482 59.6759 104.522 60.608C104.528 61.0773 104.602 61.5271 104.595 61.9899L104.622 63.3653C104.708 67.0025 104.555 70.5029 104.209 73.8925C103.49 80.6651 101.906 87.027 99.436 93.0761C96.953 99.1252 93.5781 104.822 89.3378 110.291C87.2076 113.016 84.8778 115.708 82.2883 118.348L81.3098 119.345C80.9836 119.678 80.6508 120.017 80.3113 120.336L79.2862 121.327C78.9334 121.646 78.6072 122.018 78.2477 122.331C77.8949 122.657 77.5288 122.976 77.176 123.321C76.8166 123.66 76.4637 124.012 76.091 124.338C75.3521 125.003 74.6065 125.675 73.8676 126.424L74.1805 127.213L76.9164 126.163C77.8151 125.785 78.7004 125.368 79.599 124.977C80.0517 124.788 80.4777 124.547 80.9171 124.332L82.2218 123.667C82.6611 123.452 83.0805 123.204 83.5065 122.963L84.7779 122.233C88.1329 120.219 91.2815 117.872 94.1572 115.232C97.0462 112.599 99.609 109.633 101.852 106.445C104.089 103.258 105.979 99.8357 107.471 96.2506C108.935 92.6524 109.993 88.8978 110.619 85.0781L110.832 83.644L110.939 82.927C110.972 82.6858 110.985 82.4446 111.012 82.2034L111.145 80.7564L111.212 80.0328L111.238 79.3093L111.292 77.8622C111.298 77.621 111.318 77.3798 111.312 77.1386L111.298 76.4151C111.272 75.4504 111.278 74.4791 111.185 73.5209C110.925 69.6621 110.233 65.8423 109.135 62.1398C108.016 58.4439 106.499 54.8718 104.641 51.4888L103.869 51.8799H103.883ZM92.2401 19.301C81.0036 14.7511 68.9883 9.66026 62.2983 0C62.3316 17.8343 74.4534 34.6778 91.3281 42.6564C99.3161 46.0003 107.244 50.1981 113.781 54.9566C117.522 57.5183 120.99 60.432 124.006 63.6717C124.638 64.3496 125.251 65.034 125.843 65.738C129.81 70.4182 132.899 75.6916 134.969 81.2257C135.429 82.4316 135.835 83.657 136.194 84.8825C136.554 86.1145 136.873 87.3465 137.139 88.598C140.927 106.426 135.588 125.01 124.146 139.187C123.693 139.78 123.22 140.361 122.741 140.934C122.728 140.954 122.714 140.967 122.701 140.98C112.596 153.397 98.4175 159.987 82.3483 162.719C82.6212 162.68 82.8941 162.64 83.1604 162.601C76.8698 163.618 70.4261 164.074 63.9691 163.566C163.154 172.053 182.525 50.8043 92.2201 19.2749L92.2401 19.301Z" fill="#FBF9F5"/>
</svg>
