<svg width="160" height="182" viewBox="0 0 160 182" fill="none" xmlns="http://www.w3.org/2000/svg">
<path opacity="0.1" d="M151.962 115.673C151.625 116.526 150.326 116.152 150.507 115.253C152.48 105.468 151.962 95.2039 149.309 85.4928C149.726 96.8502 146.892 108.707 139.882 120.105C135.263 127.77 129.263 134.148 122.388 139.1C121.991 139.387 121.473 138.967 121.668 138.521C121.823 138.167 121.971 137.814 122.119 137.454C129.061 124.93 130.832 109.9 125.742 95.7037C116.025 68.6033 85.0039 54.7598 56.4539 64.7842C47.862 67.8035 40.4686 72.6357 34.6037 78.661C34.2603 59.6653 42.2934 41.9294 57.9016 31.6851C71.7457 22.6005 88.7545 21.2475 104.666 26.433C104.679 26.433 104.693 26.4396 104.706 26.4463C106.497 27.0728 108.255 27.786 109.985 28.5658C116.537 30.9652 122.644 34.4045 128.125 38.6502C132.704 42.1893 136.845 46.2884 140.454 50.8007C141.868 52.567 143.202 54.3999 144.441 56.2861C155.887 73.6088 159.955 95.5971 151.969 115.666L151.962 115.673ZM121.58 180.791C91.4142 153.69 55.6863 164.401 21.0963 143.653C20.8876 143.526 20.6654 143.793 20.8135 143.973C57.4303 188.669 91.623 163.661 120.745 181.891C121.446 182.331 122.2 181.337 121.58 180.784V180.791ZM159.941 41.6761C148.11 20.4343 130.805 8.0305 111.898 2.85836C108.066 1.81193 104.167 1.0521 100.228 0.585543C69.7526 -3.04029 37.2702 10.3966 17.844 34.6844C6.70008 48.6079 -0.141155 66.0972 0.148385 85.9793C-0.363361 92.1846 0.458126 98.5231 2.46471 104.742C8.64606 123.884 26.0656 141.9 50.3332 151.538C55.4506 153.57 60.6017 155.123 65.7192 156.223C69.2476 156.976 72.7557 157.523 76.2235 157.85C76.3312 157.863 76.4457 157.869 76.5534 157.876C77.0046 157.823 77.1325 157.15 76.6544 156.963C73.3146 155.637 70.0286 154.064 66.8235 152.237C51.7741 144.286 41.014 131.069 34.9269 115.912C32.8867 110.834 31.3716 105.535 30.402 100.149C30.3279 99.7162 30.2471 99.2829 30.1798 98.8564C29.3044 93.5176 28.9543 88.1122 29.1496 82.7334C29.8364 70.083 33.4455 57.2192 40.0444 46.5217C40.078 46.4617 40.1117 46.4084 40.1521 46.3551C40.5292 45.7485 40.913 45.1487 41.317 44.5488C45.2898 38.6102 50.2254 33.4247 56.1509 29.4323C86.5594 4.90455 135.828 11.0032 159.126 42.1893C159.483 42.6626 160.224 42.196 159.934 41.6761H159.941ZM126.765 109.601C126.765 109.454 126.765 109.307 126.758 109.154C126.758 109.034 126.758 108.914 126.745 108.794C126.745 108.641 126.731 108.481 126.725 108.328C126.718 108.174 126.711 108.021 126.705 107.861C126.691 107.654 126.684 107.441 126.664 107.234C126.657 107.081 126.644 106.935 126.63 106.781C126.597 106.348 126.556 105.915 126.509 105.488C126.489 105.295 126.469 105.102 126.442 104.908C126.422 104.722 126.395 104.535 126.368 104.342C126.354 104.242 126.341 104.142 126.327 104.049C126.26 103.555 126.179 103.069 126.092 102.582C126.078 102.482 126.058 102.389 126.038 102.289C125.971 101.929 125.903 101.582 125.829 101.229C125.789 101.036 125.748 100.849 125.701 100.656C125.567 100.076 125.425 99.4962 125.27 98.9297C125.21 98.7031 125.149 98.4764 125.082 98.2565C125.062 98.1832 125.041 98.1099 125.014 98.0365C124.967 97.8633 124.913 97.69 124.86 97.5167C124.745 97.1367 124.624 96.7702 124.496 96.3969C124.408 96.1503 124.321 95.897 124.233 95.6504C123.742 94.2974 123.19 92.9844 122.57 91.7047C122.483 91.5247 122.395 91.3447 122.308 91.1648C122.18 90.9048 122.045 90.6449 121.91 90.3916C121.776 90.1384 121.641 89.8784 121.5 89.6318C121.223 89.1253 120.934 88.6254 120.638 88.1321C120.564 88.0122 120.489 87.8855 120.415 87.7656C120.267 87.519 120.112 87.279 119.958 87.0391C119.803 86.7991 119.641 86.5525 119.486 86.3192C119.163 85.8393 118.833 85.3728 118.496 84.9062C118.328 84.6796 118.166 84.453 117.998 84.233C117.904 84.1131 117.816 83.9931 117.722 83.8731C113.224 78.0545 107.319 73.3689 100.666 70.2229C100.632 70.2096 100.599 70.1963 100.572 70.1763C100.356 70.0763 100.141 69.9763 99.9321 69.8763C99.6897 69.7697 99.4473 69.6564 99.2049 69.5564C98.7538 69.3631 98.3026 69.1765 97.8515 68.9899C97.4205 68.8166 96.9828 68.6499 96.5452 68.49C96.4509 68.4567 96.3566 68.4233 96.2624 68.39C95.8449 68.2367 95.4274 68.0967 95.0032 67.9634C94.8753 67.9168 94.7406 67.8768 94.6126 67.8368C94.5924 67.8368 94.5655 67.8235 94.5453 67.8168C94.4039 67.7701 94.2558 67.7302 94.1076 67.6835C94.0942 67.6835 94.074 67.6702 94.0605 67.6702C93.8922 67.6235 93.7306 67.5702 93.5622 67.5235C92.9427 67.3436 92.3233 67.1769 91.697 67.0237C91.5422 66.9837 91.3873 66.9503 91.2324 66.9103C90.6399 66.7704 90.0406 66.6437 89.4413 66.5304C89.2259 66.4904 89.0104 66.4504 88.7949 66.4105C88.1418 66.2905 87.4819 66.1905 86.822 66.1039C86.6604 66.0839 86.4921 66.0639 86.3237 66.0439C86.1554 66.0239 85.9938 66.0039 85.8254 65.9839C85.6571 65.9639 85.4955 65.9439 85.3272 65.9306C85.3204 65.9306 85.307 65.9306 85.3002 65.9306H85.2531C82.9368 65.6373 80.5598 65.484 78.1358 65.484C58.7366 65.484 42.1924 75.1151 35.7551 88.6387C35.6945 88.7187 35.6407 88.792 35.5801 88.872C35.6743 89.4385 35.7821 89.9984 35.8965 90.5649C36.516 93.6509 37.351 96.7302 38.4081 99.7828C39.0815 98.3232 39.8558 96.9168 40.7177 95.5771C43.9835 90.3983 48.4545 86.1193 53.673 82.9933C54.3059 82.6134 54.9523 82.2468 55.6122 81.9002C64.1368 77.1947 74.4324 76.0882 84.0343 78.1278C91.0237 79.6141 97.6495 82.7534 102.969 87.3857C103.407 87.7722 104.026 87.1857 103.662 86.7325C100.989 83.4066 97.8447 80.6605 94.3837 78.4677C90.2965 75.8816 85.7581 74.0754 81.0379 73.0356C77.0921 72.1625 73.0116 71.8226 68.9513 72.0025C68.7762 72.0092 68.5944 72.0158 68.4193 72.0292C70.2307 71.6026 72.0218 71.316 73.7994 71.1494C85.4955 70.7161 96.599 74.4553 105.467 81.2737C113.52 87.4656 119.729 96.1903 122.873 106.648C123.284 108.001 123.634 109.381 123.937 110.787C123.937 110.814 123.951 110.84 123.957 110.86C124.812 114.586 125.23 118.392 125.169 122.204C125.237 121.944 125.304 121.684 125.371 121.431C125.499 120.918 125.62 120.405 125.728 119.892C125.782 119.632 125.836 119.378 125.89 119.125C126.045 118.365 126.173 117.605 126.287 116.852C126.624 114.579 126.785 112.347 126.785 110.167C126.785 109.974 126.785 109.781 126.785 109.587L126.765 109.601Z" fill="#FBF9F5"/>
</svg>
