<svg width="21" height="21" viewBox="0 0 21 21" fill="none" xmlns="http://www.w3.org/2000/svg">
<path d="M17.5854 3.41005C16.664 2.48398 15.5665 1.74972 14.3569 1.25011C13.1473 0.750493 11.8499 0.49552 10.5402 0.50006C5.05276 0.50006 0.580402 4.95005 0.580402 10.41C0.580402 12.16 1.04271 13.86 1.90704 15.36L0.5 20.5L5.77638 19.12C7.23367 19.91 8.87186 20.33 10.5402 20.33C16.0276 20.33 20.5 15.88 20.5 10.42C20.5 7.77004 19.4648 5.28005 17.5854 3.41005ZM10.5402 18.65C9.05276 18.65 7.59548 18.25 6.31909 17.5L6.01759 17.32L2.88191 18.14L3.71608 15.1L3.51508 14.79C2.68869 13.477 2.24989 11.9593 2.24874 10.41C2.24874 5.87004 5.96734 2.17005 10.5301 2.17005C12.7412 2.17005 14.8216 3.03005 16.3794 4.59005C17.1507 5.35401 17.762 6.2627 18.1778 7.26346C18.5936 8.26422 18.8056 9.33714 18.8015 10.42C18.8216 14.96 15.103 18.65 10.5402 18.65ZM15.0829 12.49C14.8317 12.37 13.6055 11.77 13.3844 11.68C13.1533 11.6 12.9925 11.56 12.8216 11.8C12.6508 12.05 12.1784 12.61 12.0377 12.77C11.897 12.94 11.7462 12.96 11.495 12.83C11.2437 12.71 10.4397 12.44 9.49497 11.6C8.75126 10.94 8.25879 10.13 8.10804 9.88003C7.96734 9.63003 8.08794 9.50003 8.21859 9.37003C8.32914 9.26003 8.46985 9.08003 8.59045 8.94003C8.71105 8.80003 8.76131 8.69003 8.84171 8.53004C8.92211 8.36004 8.88191 8.22004 8.82161 8.10004C8.76131 7.98004 8.25879 6.76004 8.05779 6.26004C7.85678 5.78004 7.64573 5.84004 7.49497 5.83004H7.01256C6.84171 5.83004 6.5804 5.89004 6.34925 6.14004C6.12814 6.39004 5.48492 6.99004 5.48492 8.21004C5.48492 9.43003 6.3794 10.61 6.5 10.77C6.6206 10.94 8.25879 13.44 10.7513 14.51C11.3442 14.77 11.8065 14.92 12.1683 15.03C12.7613 15.22 13.304 15.19 13.7362 15.13C14.2186 15.06 15.2136 14.53 15.4146 13.95C15.6256 13.37 15.6256 12.88 15.5553 12.77C15.4849 12.66 15.3342 12.61 15.0829 12.49Z" fill="#081226"/>
</svg>
